# xmcd CD database file
#
# Track frame offsets:
#	150
#	10445
#	24185
#	40689
#	52057
#	90010
#	103118
#	112641
#	146605
#	156197
#
# Disc length: 2353 seconds
#
# Revision: 0
# Processed by: cddbd v1.5.2PL0 Copyright (c) Steve Scherf et al.
# Submitted via: CDex 1.70beta2
#
DISCID=6c092f0a
DTITLE=Four-um - Just Us 
DYEAR=1972
DGENRE=Jazz
TTITLE0=What The World Needs Now 
TTITLE1=Let's Make It One World 
TTITLE2=Day Dreaming 
TTITLE3=Ain't No Mountain High Enough 
TTITLE4=Your Song 
TTITLE5=More Today Than Yesterday 
TTITLE6=Dream A Dream A Day 
TTITLE7=Scarborough Fair 
TTITLE8=Summertime
TTITLE9=I Thank You 
EXTD=YEAR: 1972
EXTT0=
EXTT1=
EXTT2=
EXTT3=
EXTT4=
EXTT5=
EXTT6=
EXTT7=
EXTT8=
EXTT9=
PLAYORDER=
